#!OML:ASF F:\VICON\USERDATA\INSTALL\rory3\rory3.ASF
:FULLY-SPECIFIED
:DEGREES
356
root -0.60185 16.9209 14.2256 11.7993 -0.62603 -5.43652
lowerback -6.17501 1.72987 5.54826
upperback -4.55565 2.06172 3.03243
thorax -1.1716 0.948728 0.125868
lowerneck -16.2357 0.93346 1.38599
upperneck 41.6756 2.5675 -3.49761
head 18.5245 0.784342 -1.39327
rclavicle -3.13769e-014 -1.98785e-014
rhumerus -41.91 -15.675 -69.4636
rradius 23.2014
rwrist -7.26511
rhand -3.68462 11.3568
rfingers 7.12502
rthumb 22.0568 -17.4053
lclavicle -3.13769e-014 -1.98785e-014
lhumerus -54.3303 31.6362 56.9623
lradius 24.7884
lwrist -8.50433
lhand 2.0956 19.6559
lfingers 7.12502
lthumb 27.596 47.6525
rfemur -24.6676 14.0068 25.9072
rtibia 26.015
rfoot -20.0247 -17.5231
rtoes -16.761
lfemur -23.0504 1.639 -17.7234
ltibia 60.7892
lfoot -9.47962 16.4647
ltoes -9.38366
357
root -0.638969 16.9134 14.2944 11.9108 -1.13768 -5.2431
lowerback -5.76743 1.92198 5.03306
upperback -4.46555 2.36783 3.00097
thorax -1.30839 1.11191 0.383207
lowerneck -16.4896 0.864188 1.12792
upperneck 41.5418 2.4474 -3.26016
head 18.497 0.726816 -1.2536
rclavicle -5.60072e-015 6.36111e-015
rhumerus -41.3158 -15.5983 -69.7183
rradius 23.5035
rwrist -7.29858
rhand -3.76263 11.1294
rfingers 7.12502
rthumb 21.9819 -17.6415
lclavicle -5.60072e-015 6.36111e-015
lhumerus -54.5777 32.0298 56.7843
lradius 24.2324
lwrist -9.16246
lhand 2.30803 20.2157
lfingers 7.12502
lthumb 27.7991 48.1797
rfemur -24.7158 15.7948 25.5852
rtibia 26.2097
rfoot -20.3282 -18.5407
rtoes -14.9567
lfemur -24.7513 2.50625 -17.9845
ltibia 61.4159
lfoot -9.78638 16.1591
ltoes -11.4245
358
root -0.644342 16.9083 14.4473 12.1581 -1.05174 -5.84796
lowerback -6.52469 2.03286 5.81611
upperback -4.24077 2.40235 3.13764
thorax -0.633333 1.12959 0.122953
lowerneck -16.6008 0.801246 0.860425
upperneck 41.3783 2.37788 -3.10945
head 18.4177 0.676869 -1.14345
rclavicle 2.59911e-014 2.62396e-014
rhumerus -40.7248 -14.9253 -70.2581
rradius 23.9469
rwrist -7.75443
rhand -3.98506 10.8788
rfingers 7.12502
rthumb 21.7683 -17.9171
lclavicle 2.59911e-014 2.62396e-014
lhumerus -55.4413 33.2842 55.404
lradius 23.2535
lwrist -11.0608
lhand 2.71688 20.0026
lfingers 7.12502
lthumb 28.19 47.9028
rfemur -24.4239 15.2967 26.4636
rtibia 26.4734
rfoot -20.6759 -18.1145
rtoes -14.885
lfemur -25.9148 2.8814 -17.4933
ltibia 61.7787
lfoot -10.7815 15.9045
ltoes -11.3701
359
root -0.662796 16.9022 14.5527 12.2008 -1.26899 -5.48838
lowerback -6.13962 2.0936 5.41685
upperback -4.38892 2.54449 2.96487
thorax -1.0014 1.1976 0.157573
lowerneck -18.1883 1.34963 2.62415
upperneck 42.469 3.15502 -4.35259
head 19.6673 1.08335 -1.94331
rclavicle -1.51666e-014 -7.95139e-015
rhumerus -40.6717 -14.3964 -70.6484
rradius 24.2894
rwrist -7.9514
rhand -4.11578 11.2391
rfingers 7.12502
rthumb 21.6428 -17.5713
lclavicle -1.51666e-014 -7.95139e-015
lhumerus -56.9855 34.6294 52.9488
lradius 21.8984
lwrist -13.7479
lhand 3.22137 19.1535
lfingers 7.12502
lthumb 28.6721 46.9732
rfemur -24.3211 15.6981 26.1777
rtibia 26.8849
rfoot -20.9019 -18.5701
rtoes -14.9448
lfemur -27.1074 3.27017 -18.0454
ltibia 61.9914
lfoot -11.9026 15.8014
ltoes -10.8972
360
root -0.668462 16.8969 14.657 12.1942 -1.26417 -5.18621
lowerback -5.70316 2.12729 5.27343
upperback -4.5748 2.64063 2.75889
thorax -1.42877 1.23576 0.0098831
lowerneck -17.842 1.30084 2.7122
upperneck 42.4569 3.02967 -4.31066
head 19.5504 1.05977 -1.96322
rclavicle -4.26036e-014 -2.26615e-014
rhumerus -40.774 -14.0916 -70.9229
rradius 24.7632
rwrist -8.11926
rhand -4.30334 11.3009
rfingers 7.12502
rthumb 21.4626 -17.5302
lclavicle -4.26036e-014 -2.26615e-014
lhumerus -57.406 33.6668 53.362
lradius 21.9407
lwrist -13.2632
lhand 3.47896 19.6563
lfingers 7.12502
lthumb 28.9181 47.4341
rfemur -24.1313 15.4911 26.0246
rtibia 27.2913
rfoot -21.1451 -18.6281
rtoes -15.7295
lfemur -28.194 3.31367 -18.5693
ltibia 62.0039
lfoot -13.2119 15.8619
ltoes -10.009
361
root -0.674453 16.8884 14.7642 12.2339 -1.24569 -5.0535
lowerback -5.46057 2.11308 5.23694
upperback -4.67524 2.64725 2.67486
thorax -1.66508 1.23294 -0.0672584
lowerneck -18.1155 1.35047 2.94743
upperneck 42.8275 3.11927 -4.51205
head 19.8951 1.10554 -2.10341
rclavicle -3.12682e-014 -2.5842e-014
rhumerus -40.6636 -13.5608 -71.2671
rradius 25.423
rwrist -8.43077
rhand -4.26803 10.8823
rfingers 7.12502
rthumb 21.4966 -17.9449
lclavicle -3.12682e-014 -2.5842e-014
lhumerus -58.4595 33.9369 52.3613
lradius 21.5458
lwrist -14.2534
lhand 3.73891 19.7248
lfingers 7.12502
lthumb 29.1664 47.4598
rfemur -24.0445 15.4093 26.0147
rtibia 27.8377
rfoot -21.8107 -18.3729
rtoes -14.4455
lfemur -29.3138 3.38413 -18.9097
ltibia 61.9183
lfoot -14.3893 15.8802
ltoes -8.93636
362
root -0.687245 16.8766 14.8761 12.3562 -1.3691 -5.17523
lowerback -5.51514 2.20258 5.39338
upperback -4.61023 2.75192 2.62731
thorax -1.55455 1.28354 -0.194649
lowerneck -18.3435 1.38526 2.96727
upperneck 42.8991 3.14375 -4.45943
head 20.0113 1.12406 -2.07893
rclavicle 1.86361e-017 -7.55382e-015
rhumerus -40.3438 -13.2147 -71.6615
rradius 26.015
rwrist -8.74316
rhand -4.32001 10.7286
rfingers 7.12502
rthumb 21.4466 -18.1043
lclavicle 1.86361e-017 -7.55382e-015
lhumerus -59.2534 34.6586 51.1436
lradius 20.9532
lwrist -15.716
lhand 3.95737 19.5127
lfingers 7.12502
lthumb 29.375 47.2114
rfemur -23.9647 15.3721 26.2749
rtibia 28.3184
rfoot -22.5759 -17.7169
rtoes -11.2795
lfemur -30.5344 3.63923 -18.9472
ltibia 61.7264
lfoot -15.3723 15.8725
ltoes -8.4771
363
root -0.695733 16.8677 14.9865 12.4393 -1.62184 -4.98041
lowerback -5.66864 2.32192 5.19609
upperback -4.37481 2.8931 2.52935
thorax -1.22165 1.36701 -0.16811
lowerneck -18.3526 1.3931 2.77645
upperneck 42.5606 3.15325 -4.3103
head 19.7778 1.11476 -1.95351
rclavicle -1.93877e-014 -2.98177e-014
rhumerus -39.7239 -12.7847 -72.0808
rradius 26.4966
rwrist -9.32844
rhand -4.48581 10.4782
rfingers 7.12502
rthumb 21.2874 -18.3727
lclavicle -1.93877e-014 -2.98177e-014
lhumerus -59.7782 35.5608 50.1634
lradius 20.3286
lwrist -17.1583
lhand 4.08243 19.5333
lfingers 7.12502
lthumb 29.4944 47.211
rfemur -23.8373 15.482 26.1511
rtibia 28.7583
rfoot -23.0643 -17.3043
rtoes -8.32633
lfemur -31.7291 3.88205 -19.3846
ltibia 61.3596
lfoot -15.8942 16.367
ltoes -11.0677
364
root -0.701135 16.8627 15.0978 12.3642 -1.72261 -4.63127
lowerback -5.2983 2.38636 4.94574
upperback -4.39224 3.01651 2.33679
thorax -1.44104 1.42758 -0.237782
lowerneck -18.2816 1.37766 2.88017
upperneck 42.4914 3.11987 -4.38179
head 19.7137 1.11048 -2.01224
rclavicle 3.49737e-015 1.19271e-015
rhumerus -39.5651 -12.5738 -72.2339
rradius 26.8545
rwrist -9.74279
rhand -4.49231 10.5479
rfingers 7.12502
rthumb 21.2811 -18.3037
lclavicle 3.49737e-015 1.19271e-015
lhumerus -60.6198 35.8604 49.0652
lradius 19.9147
lwrist -18.3725
lhand 4.33165 19.5496
lfingers 7.12502
lthumb 29.7323 47.1851
rfemur -23.4875 15.6447 25.9223
rtibia 29.0888
rfoot -23.1224 -17.7293
rtoes -7.86871
lfemur -32.6592 3.79897 -19.937
ltibia 60.8381
lfoot -16.8279 16.693
ltoes -12.0512
365
root -0.70882 16.8618 15.2192 12.2907 -1.79048 -4.34155
lowerback -5.45502 2.4076 4.67664
upperback -4.11188 3.02963 2.20277
thorax -1.06727 1.44837 -0.212329
lowerneck -18.3273 1.34461 2.94671
upperneck 42.1556 3.04376 -4.43376
head 19.5044 1.08158 -2.05405
rclavicle -2.99047e-014 2.78299e-015
rhumerus -38.8594 -12.3582 -72.5403
rradius 27.082
rwrist -10.2042
rhand -4.50291 10.8018
rfingers 7.12502
rthumb 21.271 -18.0509
lclavicle -2.99047e-014 2.78299e-015
lhumerus -61.2053 36.5138 48.0354
lradius 19.5522
lwrist -19.4327
lhand 4.44934 19.3636
lfingers 7.12502
lthumb 29.8446 46.9789
rfemur -23.1409 15.9406 25.7567
rtibia 29.4291
rfoot -23.1127 -18.4268
rtoes -7.99232
lfemur -33.4559 3.72633 -20.3967
ltibia 60.1827
lfoot -17.8261 16.8169
ltoes -11.3393
366
root -0.723833 16.8546 15.3437 12.2811 -2.12461 -4.54413
lowerback -5.46949 2.54858 4.75506
upperback -4.04118 3.20947 2.21513
thorax -0.976244 1.53919 -0.231464
lowerneck -17.6573 1.26705 2.5003
upperneck 41.5089 2.87009 -3.95894
head 18.8663 1.01108 -1.75177
rclavicle -3.17559e-014 -1.27222e-014
rhumerus -38.4633 -12.3319 -72.5838
rradius 27.083
rwrist -10.2774
rhand -4.39204 11.3649
rfingers 7.12502
rthumb 21.3775 -17.4758
lclavicle -3.17559e-014 -1.27222e-014
lhumerus -62.1157 36.9109 46.8953
lradius 19.2596
lwrist -20.5322
lhand 4.61375 18.9243
lfingers 7.12502
lthumb 30.0015 46.5113
rfemur -22.7786 16.3221 26.1413
rtibia 29.7195
rfoot -22.9644 -18.8476
rtoes -8.18578
lfemur -34.3416 4.18587 -20.313
ltibia 59.5112
lfoot -18.7904 16.8479
ltoes -10.76
